<?xml version="1.0" standalone="no"?>
<!DOCTYPE svg PUBLIC "-//W3C//DTD SVG 20010904//EN"
 "http://www.w3.org/TR/2001/REC-SVG-20010904/DTD/svg10.dtd">
<svg version="1.0" xmlns="http://www.w3.org/2000/svg"
 width="500.000000pt" height="500.000000pt" viewBox="0 0 500.000000 500.000000"
 preserveAspectRatio="xMidYMid meet">
<metadata>
Created by potrace 1.14, written by Peter Selinger 2001-2017
</metadata>
<g transform="translate(0.000000,500.000000) scale(0.100000,-0.100000)"
fill="#000000" stroke="none">
<path d="M531 4984 c-24 -7 -48 -17 -55 -22 -6 -5 -23 -12 -38 -16 -16 -3 -28
-10 -28 -15 0 -5 -13 -12 -30 -16 -16 -4 -33 -13 -37 -20 -5 -8 -12 -13 -17
-13 -5 1 -20 -7 -33 -18 -43 -34 -154 -144 -146 -144 4 0 0 -5 -10 -11 -9 -5
-17 -17 -17 -24 0 -8 -4 -15 -8 -15 -6 0 -51 -77 -57 -100 -1 -3 -7 -18 -14
-35 -7 -16 -14 -37 -16 -45 -2 -8 -4 -15 -5 -15 -17 0 -28 -3881 -11 -3898 5
-5 7 -16 4 -23 -3 -8 -1 -14 4 -14 5 0 9 -8 10 -17 3 -44 8 -61 15 -57 4 3 8
-3 8 -13 0 -11 5 -24 12 -31 7 -7 8 -12 4 -12 -7 0 30 -68 43 -80 4 -3 12 -16
19 -30 15 -30 109 -130 121 -130 5 0 11 -4 13 -9 8 -22 195 -124 211 -114 4 3
16 -1 25 -9 9 -8 24 -14 32 -13 8 0 18 -4 22 -10 5 -7 620 -11 1928 -13 1716
-2 1924 0 1951 13 16 9 34 13 39 10 5 -3 11 -1 15 5 4 6 11 8 16 5 5 -4 9 -2
9 3 0 5 6 9 13 9 18 0 131 54 139 67 5 7 8 7 8 1 0 -7 3 -7 8 0 4 6 27 23 52
40 25 16 62 48 82 70 53 57 58 63 58 74 0 5 7 11 15 15 8 3 15 14 15 25 0 11
6 26 13 33 15 15 43 79 39 91 -1 4 3 7 8 7 5 0 9 3 9 8 -1 4 0 9 1 12 1 3 4
18 6 35 3 16 10 35 16 42 8 10 7 13 -3 13 -11 0 -11 2 -1 8 16 11 13 3868 -3
3880 -5 4 -11 16 -13 27 -4 30 -54 135 -64 135 -5 0 -7 4 -4 9 3 5 -3 20 -14
34 -11 14 -20 29 -20 34 0 5 -8 16 -17 25 -10 9 -34 32 -53 53 -18 20 -47 44
-62 53 -15 9 -28 20 -28 24 0 4 -7 8 -15 8 -8 0 -15 5 -15 10 0 6 -5 10 -11
10 -6 0 -23 9 -39 20 -15 11 -30 17 -34 13 -3 -3 -6 -1 -6 6 0 7 -4 9 -10 6
-5 -3 -10 -1 -10 6 0 7 -3 9 -7 6 -3 -4 -11 -3 -17 2 -6 5 -42 18 -80 30 l-68
21 -1912 -1 c-1588 -1 -1918 -3 -1955 -15z"/>
</g>
</svg>
